<?xml version="1.0" encoding="UTF-8" standalone="no"?>
<svg
   xmlns:d="https://loading.io/stock/"
   xmlns:dc="http://purl.org/dc/elements/1.1/"
   xmlns:cc="http://creativecommons.org/ns#"
   xmlns:rdf="http://www.w3.org/1999/02/22-rdf-syntax-ns#"
   xmlns:svg="http://www.w3.org/2000/svg"
   xmlns="http://www.w3.org/2000/svg"
   xmlns:sodipodi="http://sodipodi.sourceforge.net/DTD/sodipodi-0.dtd"
   xmlns:inkscape="http://www.inkscape.org/namespaces/inkscape"
   version="1.1"
   id="圖層_1"
   x="0"
   y="0"
   viewBox="0 0 100.88577 86.420128"
   xml:space="preserve"
   sodipodi:docname="apple_logo.svg"
   width="100.88577"
   height="86.420128"
   inkscape:version="1.0.1 (3bc2e813f5, 2020-09-07)"><defs
     id="defs13" /><sodipodi:namedview
     pagecolor="#ffffff"
     bordercolor="#666666"
     borderopacity="1"
     objecttolerance="10"
     gridtolerance="10"
     guidetolerance="10"
     inkscape:pageopacity="0"
     inkscape:pageshadow="2"
     inkscape:window-width="1920"
     inkscape:window-height="1007"
     id="namedview11"
     showgrid="false"
     showborder="false"
     fit-margin-top="0"
     fit-margin-left="0"
     fit-margin-right="0"
     fit-margin-bottom="0"
     inkscape:zoom="3.6133447"
     inkscape:cx="103.2345"
     inkscape:cy="74.397576"
     inkscape:window-x="0"
     inkscape:window-y="0"
     inkscape:window-maximized="1"
     inkscape:current-layer="圖層_1" /><path
     d="m 44.074,14.438123 c 3.819,-6.9510001 10.598,-9.8370001 18.27,-12.4800001 2.514,1.899 3.473,4.342 1.869,7.627 -6.72,2.4210001 -12.945,4.1990001 -16.875,10.0000001 -2.108,3.113 -3.689,6.545 -4.735,10.113 a 38.23,38.23 0 0 0 -1.161,5.372 c -0.268,1.888 0.282,4.078 -1.812,4.867 -1.069,-3.668 -0.415,-8.625 0.122,-12.344 0.663,-4.569 2.072,-9.059 4.322,-13.155 z"
     fill="#66503a"
     stroke-width="3.5"
     stroke="#333333"
     stroke-miterlimit="10"
     id="path2" /><path
     d="M 37.811,13.919123 C 32.359,7.4701229 23.306,4.2871229 15.018,5.9041229 c -0.29,1.714 0.243,3.466 0.995,5.0330001 3.062,6.377 10.108,10.618 17.177,10.336 1.455,-0.058 2.952,-0.285 4.339,0.159 1.387,0.444 2.612,1.861 2.226,3.265 1.547,-3.631 0.517,-7.868 -1.944,-10.778 z"
     fill="#009245"
     stroke-width="3.5"
     stroke="#333333"
     stroke-miterlimit="10"
     id="path4" /><metadata
     id="metadata8">
<d:name>apple</d:name>
<d:tags>apple,fruit</d:tags>
<d:license>by</d:license>
<d:slug>4fpkd9</d:slug>
<rdf:RDF><cc:Work
     rdf:about=""><dc:format>image/svg+xml</dc:format><dc:type
       rdf:resource="http://purl.org/dc/dcmitype/StillImage" /><dc:title></dc:title></cc:Work></rdf:RDF></metadata><path
     id="path838"
     style="fill:#ff0000;fill-opacity:1;stroke:#333333;stroke-width:3.5;stroke-linecap:butt;stroke-linejoin:miter;stroke-miterlimit:4;stroke-dasharray:none;stroke-opacity:1"
     d="m 65.524102,25.599075 c 0,0 -14.416224,19.177613 11.814114,25.543433 M 69.257,27.955123 a 21.347,21.347 0 0 0 -6.287,-3.619 c -10.438,-3.877 -23.204,6.333 -23.204,6.333 0,0 -10.796,-9.667 -22.462,-6.333 -11.667,3.333 -15.554,15.668 -15.554,25.333 0,9.665 4.255,18.415 11.135,24.749 4.124,3.797 9.195,6.716 14.854,8.453 a 40.925,40.925 0 0 0 12.027,1.799 c 10.498,0 20.002,-3.918 26.881,-10.251 6.879,-6.333 11.135,-15.085 11.135,-24.75 0,-7.622 -1.976,-16.268 -8.525,-21.714 z" /><path
     style="opacity:0.940983;fill:#ffccaa;fill-opacity:1;stroke:#333333;stroke-width:0.20588;stroke-linejoin:round;stroke-miterlimit:4;stroke-dasharray:none;stroke-opacity:1;paint-order:fill markers stroke"
     d="m 74.966094,48.634837 c -3.083326,-0.995004 -5.273872,-2.055421 -7.193364,-3.48222 -0.709026,-0.527034 -2.053945,-1.859502 -2.530264,-2.50684 -0.896303,-1.218112 -1.494909,-2.621802 -1.76186,-4.131446 -0.155672,-0.880345 -0.136089,-2.80202 0.03867,-3.794781 0.381002,-2.164355 1.209963,-4.382924 2.435156,-6.517268 l 0.195664,-0.340856 0.636591,0.445662 c 2.791816,1.954485 4.88351,4.453042 6.445143,7.698813 1.628181,3.384086 2.536008,7.357818 2.739867,11.992934 0.03401,0.773163 0.02718,0.925988 -0.04126,0.9236 -0.0451,-0.0016 -0.479058,-0.130993 -0.964348,-0.287598 z"
     id="path845" /><g
     transform="matrix(-0.00340567,0.00196626,-0.00196626,-0.00340567,98.60379,13.30521)"
     id="g8"
     style="fill:#000000;stroke-width:81.3451;stroke-miterlimit:4;stroke-dasharray:none"><path
       d="M 1754.9,4561.4 C 1519.4,4436.9 1308.8,4165 1188.1,3839.5 1136.4,3697.8 1115.3,3665.3 1017.7,3577.2 468.2,3079.4 288.2,2282.8 567.7,1591.6 l 46,-114.9 -44,-49.8 C 496.9,1350.3 357.2,1122.5 294,976.9 29.7,369.9 35.5,-152.8 311.2,-610.5 l 76.6,-128.3 -11.5,-214.4 c -7.7,-128.3 -3.8,-306.4 9.6,-444.2 55.5,-553.4 229.8,-947.8 545.7,-1229.3 109.1,-95.7 143.6,-145.5 258.5,-365.7 164.7,-314 323.6,-540 536.1,-750.6 273.8,-275.7 582.1,-455.7 938.2,-551.5 151.3,-38.3 231.7,-47.9 469.1,-51.7 l 289.1,-3.8 122.5,-68.9 c 419.3,-231.7 913.4,-358.1 1405.4,-360 279.6,0 490.2,36.4 683.6,122.5 l 103.4,44 134,-36.4 c 206.8,-57.4 616.6,-57.4 832.9,1.9 208.7,55.5 471,185.7 645.3,319.8 135.9,103.4 141.7,105.3 268.1,105.3 427,0 942.1,304.5 1210.1,714.2 67,103.4 93.8,128.3 183.8,164.7 212.5,88.1 394.5,281.5 520.8,551.5 65.1,139.8 259.6757,125.3493 259.6757,222.9493 0,30.6 -98.7757,368.6507 -73.8757,401.2507 -356.0029,1222.02149 -298.7978,1016.0719 -385.2109,1305.23423 C 9227.7891,-902.16577 8977.3,-989.6 8881.6,-1077.7 c -44,-42.1 -72.8,-49.8 -174.3,-53.6 -247,-7.6 -455.7,-107.2 -584,-279.6 l -65.1,-88.1 -168.5,-1.9 c -237.4,-1.9 -448.1,-84.2 -637.6,-250.8 l -67,-59.4 -91.9,32.5 c -59.3,21.1 -170.4,36.4 -312.1,42.1 -201,7.7 -235.5,3.8 -373.4,-44 -84.3,-26.8 -181.9,-67 -214.5,-88.1 l -61.3,-38.3 -88.1,59.4 c -126.4,86.2 -304.5,162.8 -463.4,199.1 -149.3,32.6 -411.7,40.2 -526.6,13.4 -70.8,-17.2 -72.8,-15.3 -224,132.1 -128.3,128.3 -181.9,164.7 -360,248.9 -113,53.6 -218.3,105.3 -233.6,113 -15.3,7.7 -38.3,68.9 -53.6,137.9 -28.7,145.5 -65.1,233.6 -164.7,400.2 C 3949,-488 3945.1,-474.6 3966.2,-421 4135,0.4 4158,335.4 4043.1,672.5 l -38.3,109.1 141.7,145.5 c 348.5,360 515.1,764 513.2,1256.1 -1.9,266.2 -53.6,505.5 -158.9,727.6 -63.2,132.1 -63.2,137.9 -67,421.3 -1.9,225.9 -11.5,319.8 -44,438.5 -51.7,193.4 -149.4,390.6 -264.2,538.1 l -90,114.9 -17.2,-76.6 c -36.4,-183.8 -80.4,-335.1 -132.1,-469.1 -32.5,-78.5 -59.4,-145.5 -61.3,-149.4 -3.8,-1.9 -76.6,38.3 -162.8,91.9 -183.8,109.1 -392.5,193.4 -630,254.7 -143.6,36.4 -218.3,42.1 -540,42.1 -333.2,0 -392.5,-5.7 -545.7,-46 -93.8,-24.9 -183.8,-49.8 -199.1,-55.5 -44,-17.2 -11.5,185.7 65.1,407.8 36.4,105.3 63.2,191.5 61.3,195.3 -2.1,1.9 -55.7,-24.9 -118.9,-57.4 z m 1016.8,-838.7 c 681.7,-93.8 1258,-559.1 1447.6,-1166.1 36.4,-120.6 44,-181.9 42.1,-392.5 0,-212.5 -7.7,-270 -49.8,-396.4 -153.2,-461.5 -540,-832.9 -1030.2,-988 -231.7,-72.8 -333.2,-88.1 -574.4,-88.1 -534.2,1.9 -961.2,178.1 -1321.2,541.9 -248.9,250.8 -367.6,465.3 -434.7,773.6 -34.5,170.4 -24.9,451.9 23,620.4 l 34.5,120.6 30.6,-63.2 c 26.8,-53.6 42.1,-61.3 114.9,-67 126.4,-9.6 270,70.8 446.1,245.1 273.8,271.9 365.7,585.9 191.5,652.9 l -51.7,21.1 68.9,34.5 c 277.7,143.5 693.2,202.9 1062.8,151.2 z M 1276.2,714.6 C 1912,262.7 2777.4,170.8 3493.6,477.1 c 88.1,38.3 164.7,68.9 170.4,68.9 30.6,0 57.4,-216.4 49.8,-375.3 -11.5,-183.8 -38.3,-283.4 -143.6,-501.7 -80.4,-168.5 -78.5,-185.7 63.2,-396.4 134,-204.9 158.9,-268.1 181.9,-467.2 24.9,-224 42.1,-245.1 287.2,-327.4 296.8,-101.5 465.3,-224 599.3,-438.5 78.5,-122.5 158.9,-143.6 315.9,-88.1 132.1,45.9 302.5,53.6 453.8,23 174.3,-38.3 306.4,-105.3 438.5,-224 139.8,-126.4 214.5,-130.2 382.9,-17.2 248.9,166.6 518.9,193.4 769.7,76.6 193.4,-91.9 225.9,-84.2 392.5,80.4 218.3,218.3 315.9,247 695.1,193.4 93.8,-13.4 170.4,38.3 214.5,143.6 86.2,204.9 264.2,293 474.9,235.5 91.9,-26.8 168.5,5.7 254.7,109.1 32.1434,16.2801 66.4,-28 99.6,-42 -47.9,-76.6 -47.9,-120.6 -1.9,-206.8 143.6,-266.1 126.4,-685.5 -40.2,-999.5 -53.6,-97.7 -63.2,-109.1 -68.9,-70.8 -28.7,296.8 -114.9,578.3 -206.8,689.3 -95.7,111.1 -270,86.2 -325.5,-47.9 -23,-57.5 -23,-76.6 3.8,-147.4 120.6,-321.7 126.3,-344.7 118.6,-522.8 -7.7,-145.5 -19.2,-197.2 -76.6,-331.3 -120.6,-273.8 -315.9,-474.9 -597.4,-618.5 -82.3,-40.2 -155.1,-70.8 -158.9,-67 -3.8,3.8 13.4,49.8 38.3,101.5 86.2,168.5 132.1,348.5 141.7,561 7.6,168.5 3.8,212.5 -26.8,268.1 -70.9,137.9 -239.4,149.3 -327.4,19.1 -38.3,-57.4 -44,-82.3 -32.6,-164.7 17.2,-139.8 -32.6,-354.2 -126.4,-538.1 -160.8,-319.8 -494,-599.3 -840.6,-702.7 -128.3,-40.2 -373.4,-68.9 -444.2,-55.5 l -53.6,9.6 101.5,111.1 c 210.6,233.6 419.3,668.3 423.2,877 1.9,90 -5.8,109.2 -51.7,149.4 -36.4,30.6 -76.6,46 -126.4,46 -105.3,0 -166.6,-57.4 -204.9,-187.6 -17.2,-59.4 -59.4,-170.4 -93.8,-245.1 -201.1,-440.4 -545.7,-733.4 -968.9,-823.3 -302.5,-65.1 -859.7,5.7 -1214,153.2 l -74.7,30.6 147.4,84.3 c 329.3,187.6 561,396.3 737.2,668.2 107.2,162.8 132.1,243.2 101.5,323.6 -38.3,101.5 -176.2,147.4 -275.7,93.8 -24.9,-13.4 -78.5,-82.3 -118.7,-151.3 -101.5,-178.1 -381,-448.1 -572.5,-557.2 -82.3,-45.9 -237.4,-114.9 -342.7,-151.3 -174.2,-59.4 -222.1,-68.9 -444.2,-76.6 -212.5,-7.7 -275.7,-1.9 -411.7,32.6 -306.4,76.6 -547.6,218.3 -794.6,469.1 -128.3,130.2 -367.6,446.1 -350.4,461.5 3.8,1.9 70.8,-5.7 149.4,-21.1 300.6,-53.6 806.1,-23 1168,68.9 193.4,49.8 413.6,128.3 490.2,174.2 114.9,70.8 137.9,214.5 47.9,306.4 -70.9,68.9 -149.4,72.8 -291.1,9.6 -222.1,-97.6 -580.2,-174.2 -921,-195.3 -344.7,-21.1 -698.9,55.5 -945.9,204.9 -231.7,139.8 -423.2,425.1 -505.5,754.4 -36.4,139.8 -76.6,564.9 -53.6,564.9 3.8,0 76.6,-38.3 160.8,-86.2 183.8,-105.3 386.8,-185.7 591.7,-231.7 224,-53.6 708.5,-47.9 913.4,7.7 195.3,53.6 423.2,158.9 461.5,216.4 53.6,72.8 42.1,183.8 -23,248.9 -72.8,72.8 -139.8,72.8 -304.4,0 -218.3,-95.7 -354.2,-122.5 -607,-122.5 -419.3,1.9 -806.1,145.5 -1083.8,404 -302.7,279.4 -425.3,603 -377.4,993.7 26.8,229.8 172.3,616.6 285.3,758.2 l 40.2,53.6 176.2,-168.5 c 95.7,-93.8 218.2,-201 269.9,-239.3 z"
       id="path4-3"
       style="fill:#000000;stroke-width:81.3451;stroke-miterlimit:4;stroke-dasharray:none"
       sodipodi:nodetypes="ccccccccccccccccccccccccscccscccccccccccccccccccscccccccccccccccccsccccccccccccccccccccccccsccccccccccccccccccccccccccscsccccccccccsccccccccscccccccccccccccsccccscccccccc" /><path
       d="m 3133.6,3257.4 c -42.1,-15.3 -113,-67 -155.1,-114.9 -126.4,-137.9 -155.1,-325.5 -84.3,-549.5 95.7,-308.3 423.2,-543.8 666.3,-478.7 224,61.3 342.8,252.8 325.5,520.8 -28.6,400.2 -436.5,737.2 -752.4,622.3 z"
       id="path6"
       style="fill:#000000;stroke-width:81.3451;stroke-miterlimit:4;stroke-dasharray:none" /></g><path
     style="opacity:0.940983;fill:#00ff00;fill-opacity:1;stroke:#333333;stroke-width:0.0228509;stroke-linejoin:round;stroke-miterlimit:4;stroke-dasharray:none;stroke-opacity:1;paint-order:fill markers stroke"
     d="m 88.154746,38.559503 c -1.3244,0.119524 -2.4724,-0.251628 -3.88424,-1.255806 -1.17547,-0.836069 -1.68383,-0.939092 -2.09981,-0.425525 -0.51142,0.63142 1.4142,2.507919 3.16461,3.083763 0.46502,0.153003 0.47861,0.185435 0.15549,0.371994 -1.60178,0.924787 -4.60702,0.516144 -6.01473,-0.817855 -0.48554,-0.460179 -0.9986,-1.037113 -1.14005,-1.282131 -0.30626,-0.530343 -1.1455,-0.426134 -1.36599,0.169618 -0.17529,0.473342 0.59207,1.912557 1.34817,2.528773 0.73065,0.595541 0.57604,0.74926 -0.60105,0.597715 -1.97847,-0.254647 -3.32133,-1.529057 -3.69856,-3.509985 -0.16501,-0.867678 -0.71026,-1.206954 -1.34859,-0.838413 -0.397,0.229209 -0.37551,1.947367 0.0345,2.750649 0.15226,0.295989 0.0194,0.268251 -0.48369,-0.103499 -0.69591,-0.514215 -1.20309,-1.443256 -1.64767,-3.018196 -0.14522,-0.512443 -0.11972,-0.736831 0.0706,-0.634442 0.16196,0.08715 0.64079,-0.04162 1.0642,-0.286055 0.64886,-0.374628 0.91732,-0.382854 1.70837,-0.05251 0.88149,0.368128 0.98478,0.35511 1.6998,-0.214212 0.67569,-0.538032 0.87926,-0.582591 1.81158,-0.396568 1.16953,0.233328 1.36726,0.160615 2.41791,-0.889052 0.65299,-0.652399 0.84964,-0.7372 1.80526,-0.778425 1.3642,-0.05885 1.4645,-0.12413 2.03714,-1.326017 0.41688,-0.874925 0.64682,-1.090852 1.87699,-1.762498 1.32208,-0.721834 1.41107,-0.814884 1.56305,-1.634368 0.0887,-0.477957 0.50703,-1.393586 0.92978,-2.034809 0.65525,-0.993957 0.73014,-1.279828 0.50786,-1.938835 -0.14331,-0.425192 -0.27327,-1.266222 -0.28857,-1.869104 -0.0274,-1.076958 -0.0434,-1.109283 -0.91385,-1.847114 -0.95402,-0.808503 -1.85752,-2.169032 -1.55603,-2.3431 0.10183,-0.05879 0.49144,-0.155002 0.86591,-0.214088 3.10821,-0.489195 6.103964,-3.053423 7.073554,-6.054663 0.20833,-0.644883 0.42839,-1.201152 0.48903,-1.236151 0.0607,-0.035 0.59848,0.337197 1.19528,0.827088 2.31122,1.89723 2.71172,4.18619 1.15535,6.603187 -0.68496,1.0637 -0.90696,1.250956 -2.29791,1.938226 -0.84684,0.418414 -1.93958,0.91334 -2.42826,1.099823 -0.76541,0.292062 -0.87165,0.40063 -0.76672,0.783135 0.19527,0.714068 0.74411,0.879731 2.03245,0.614625 1.75558,-0.361208 3.88786,-1.806255 4.87034,-3.300679 l 0.74596,-1.134584 0.41147,1.012764 c 0.8814,2.169369 0.62331,4.16632 -0.71218,5.511124 -0.89587,0.902101 -3.63148,2.254303 -5.12755,2.534567 -0.92403,0.173101 -1.16624,0.292296 -1.29389,0.637367 -0.23071,0.623406 0.33564,1.186439 1.12947,1.124633 1.19953,-0.0936 3.86949,-1.075548 5.00644,-1.841246 0.60084,-0.404648 1.12309,-0.682623 1.16053,-0.617752 0.16121,0.279256 -0.75603,3.183069 -1.24273,3.934268 -0.80691,1.245442 -2.0798,2.097995 -3.67711,2.462833 -1.13269,0.258696 -1.72679,0.210747 -3.48689,-0.281504 -1.658384,-0.463791 -2.192424,-0.515718 -2.446104,-0.237836 -0.59515,0.651985 0.15112,1.428558 1.907564,1.984837 0.86918,0.275298 1.88411,0.490753 2.25538,0.478793 0.93726,-0.03019 0.95288,0.148511 0.0866,0.989148 -1.1336,1.099803 -2.906764,2.033931 -4.058004,2.137834 z"
     id="path923" /><path
     style="opacity:0.940983;fill:#00ff00;fill-opacity:1;stroke:#333333;stroke-width:0.0228509;stroke-linejoin:round;stroke-miterlimit:4;stroke-dasharray:none;stroke-opacity:1;paint-order:fill markers stroke"
     d="m 86.246066,16.808194 c -1.27716,0.276383 -3.78135,-0.18848 -4.79893,-0.890811 -0.87175,-0.601696 -2.07409,-2.616326 -2.21326,-3.708589 -0.4217,-3.3083111 2.21621,-6.7034531 5.80802,-7.4752641 0.6523,-0.140137 0.75281,-0.09579 0.73818,0.325938 -0.0133,0.39313 0.18309,0.602454 1.01413,1.074569 1.18565,0.674313 2.30309,0.806353 3.071214,0.362879 0.45075,-0.260242 0.61479,-0.214937 1.04719,0.289086 1.33786,1.559521 1.23514,4.7860571 -0.22154,6.9512681 -0.963244,1.431857 -2.829744,2.721377 -4.444944,3.070899 z m -2.65723,-5.079617 c 0.59105,-1.630863 -0.32005,-3.3509001 -1.81999,-3.4355781 -0.6233,-0.03521 -0.76199,0.03719 -1.27301,0.664572 -0.32177,0.395033 -0.60172,1.1098111 -0.63773,1.6283801 -0.18728,2.69357 2.83329,3.618721 3.73063,1.142676 z"
     id="path925" /></svg>
