<?xml version="1.0" encoding="UTF-8" standalone="no"?>
<svg
   xmlns:dc="http://purl.org/dc/elements/1.1/"
   xmlns:cc="http://creativecommons.org/ns#"
   xmlns:rdf="http://www.w3.org/1999/02/22-rdf-syntax-ns#"
   xmlns:svg="http://www.w3.org/2000/svg"
   xmlns="http://www.w3.org/2000/svg"
   xmlns:sodipodi="http://sodipodi.sourceforge.net/DTD/sodipodi-0.dtd"
   xmlns:inkscape="http://www.inkscape.org/namespaces/inkscape"
   version="1.1"
   id="svg78"
   width="1467.8046"
   height="1910.7819"
   viewBox="0 0 1467.8046 1910.7818"
   sodipodi:docname="apple_machine.svg"
   inkscape:version="1.0.1 (3bc2e813f5, 2020-09-07)">
  <metadata
     id="metadata84">
    <rdf:RDF>
      <cc:Work
         rdf:about="">
        <dc:format>image/svg+xml</dc:format>
        <dc:type
           rdf:resource="http://purl.org/dc/dcmitype/StillImage" />
        <dc:title></dc:title>
      </cc:Work>
    </rdf:RDF>
  </metadata>
  <defs
     id="defs82" />
  <sodipodi:namedview
     pagecolor="#ffffff"
     bordercolor="#666666"
     borderopacity="1"
     objecttolerance="10"
     gridtolerance="10"
     guidetolerance="10"
     inkscape:pageopacity="0"
     inkscape:pageshadow="2"
     inkscape:window-width="1920"
     inkscape:window-height="1007"
     id="namedview80"
     showgrid="false"
     showborder="false"
     inkscape:snap-global="false"
     inkscape:zoom="0.12616444"
     inkscape:cx="-1257.5136"
     inkscape:cy="879.48789"
     inkscape:window-x="0"
     inkscape:window-y="0"
     inkscape:window-maximized="1"
     inkscape:current-layer="g86"
     fit-margin-top="0"
     fit-margin-left="0"
     fit-margin-right="0"
     fit-margin-bottom="0"
     inkscape:document-rotation="0" />
  <g
     inkscape:groupmode="layer"
     inkscape:label="Image"
     id="g86"
     transform="translate(-4489.506,-428.60819)">
    <path
       style="fill:#dbccb7;fill-opacity:0.999943;stroke:#000000;stroke-width:9;stroke-linecap:butt;stroke-linejoin:round;stroke-miterlimit:4;stroke-dasharray:none;stroke-dashoffset:0;stroke-opacity:1"
       d="m 4533.7104,2142.9766 -2.6861,191.9134 1384.5991,-9.326 -2.2643,-175.2245"
       id="path973"
       sodipodi:nodetypes="cccc" />
    <path
       style="fill:#dbccb7;fill-opacity:1;stroke:#000000;stroke-width:9;stroke-linecap:butt;stroke-linejoin:round;stroke-miterlimit:4;stroke-dasharray:none;stroke-dashoffset:0;stroke-opacity:1"
       d="m 4539.2344,439.48848 1365.4766,-6.07057 c 0,0 52.1892,-9.7669 47.8484,76.72498 -4.3408,86.49187 -0.65,1593.80061 -0.65,1593.80061 0,0 1.3386,40.1968 -41.1719,50.5642 -42.5106,10.3673 -1338.4896,-7.321 -1338.4896,-7.321 0,0 -58.684,27.4442 -59.8463,-78.2234 -1.1623,-105.6676 -20.8339,-1479.30804 -18.1346,-1558.37421 2.6992,-79.06617 44.9674,-71.10061 44.9674,-71.10061 z"
       id="path102" />
    <path
       style="fill:#dbccb7;fill-opacity:1;stroke:#000000;stroke-width:9;stroke-linecap:butt;stroke-linejoin:round;stroke-miterlimit:4;stroke-dasharray:none;stroke-dashoffset:0;stroke-opacity:1"
       d="m 4529.0045,544.60953 c 0,0 -9.6953,-16.04056 23.2954,-15.57313 32.9906,0.46743 1338.2664,-1.66326 1338.2664,-1.66326 0,0 29.5608,-6.62384 28.5539,14.21759 -1.0069,20.84142 -3.827,1504.90427 -3.827,1504.90427 0,0 3.4706,14.241 -17.3026,16.5177 -20.7733,2.2768 -1322.2512,3.6479 -1322.2512,3.6479 0,0 -26.0123,10.856 -28.0223,-25.0522 -2.0099,-35.9081 -18.7126,-1496.99887 -18.7126,-1496.99887 z"
       id="path104" />
    <path
       style="fill:#dbccb7;fill-opacity:1;stroke:#000000;stroke-width:9;stroke-linecap:butt;stroke-linejoin:round;stroke-miterlimit:4;stroke-dasharray:none;stroke-dashoffset:0;stroke-opacity:1"
       d="m 4647.7973,621.2618 1151.2914,0.65829 c 0,0 23.7356,-9.18885 23.9382,19.46251 0.2025,28.65136 1.1374,872.4203 1.1374,872.4203 0,0 9.8685,17.3611 -24.0686,20.7207 -33.9372,3.3596 -1146.2959,1.116 -1146.2959,1.116 0,0 -23.6109,5.6987 -23.5525,-27.8431 0.058,-33.5418 -10.3243,-863.46131 -10.3243,-863.46131 0,0 -4.1952,-24.91194 27.8743,-23.07339 z"
       id="path106" />
    <path
       style="opacity:0.940983;fill:#000000;fill-opacity:1;stroke:#000000;stroke-width:9;stroke-linecap:butt;stroke-linejoin:round;stroke-miterlimit:4;stroke-dasharray:none;stroke-dashoffset:0;stroke-opacity:1"
       d="m 4673.6849,767.29248 c 0,0 -21.9342,-91.44419 70.9739,-98.05874 92.9081,-6.61456 892.4381,-21.56911 979.7331,-1.78231 0,0 51.9273,5.66171 53.1621,51.05379 1.2348,45.39208 10.3311,690.80328 0.3837,714.16498 -9.9475,23.3616 5.4961,27.8548 -49.859,52.8719 0,0 -831.4143,29.5774 -997.8691,0.1753 0,0 -52.0218,-3.9547 -48.5161,-71.3207 0,0 -16.043,-645.15139 -8.0086,-647.10422 z"
       id="path112" />
    <path
       style="fill:#251600;fill-opacity:0.580392;stroke:#000000;stroke-width:9;stroke-linecap:butt;stroke-linejoin:round;stroke-miterlimit:4;stroke-dasharray:none;stroke-dashoffset:0;stroke-opacity:1"
       d="m 5188.309,1766.8955 376.3415,1.0595 2.1901,-30.8498 c 0,0 0.15,-8.5738 10.7464,-9.6519 16.6119,-1.6901 56.6902,0.9172 99.5957,1.3454 26.0096,0.2595 57.7194,0.9776 79.2377,0.3314 12.0319,-0.3613 25.8181,0.2743 34.1389,0.3487 11.3171,0.1011 15.1406,0.6403 15.1406,0.6403 0,0 13.5846,2.77 14.5136,14.3876 0.9291,11.6175 0.4052,113.6043 0.4052,113.6043 0,0 -1.5971,13.273 -18.3115,13.4571 -16.7144,0.184 -214.9573,-1.3731 -214.9573,-1.3731 0,0 -20.1471,4.4289 -20.782,-20.6661 -0.6349,-25.0951 -0.7956,-16.1487 -0.7956,-16.1487 l -376.0337,-1.2416 c 0,0 -9.2512,1.4412 -9.8852,-8.2764 -0.6339,-9.7176 -0.6368,-50.2514 -0.6368,-50.2514 0,0 0.5706,-8.624 9.0924,-6.7153 z"
       id="path114"
       sodipodi:nodetypes="cccsssscscscsccscc" />
    <path
       style="fill:#4d4c47;fill-opacity:0.819608;stroke:#000000;stroke-width:9;stroke-linecap:butt;stroke-linejoin:round;stroke-miterlimit:4;stroke-dasharray:none;stroke-dashoffset:0;stroke-opacity:1"
       d="m 5233.6516,1779.2075 378.7878,1.8061 0.2509,-34.0013 166.5717,0.148 1.5114,105.8197 -166.9441,0.9104 -0.042,-34.4352 -380.4322,-2.1672 z"
       id="path116"
       sodipodi:nodetypes="ccccccccc" />
    <path
       style="fill:none;stroke:#000000;stroke-width:9;stroke-linecap:butt;stroke-linejoin:round;stroke-miterlimit:4;stroke-dasharray:none;stroke-dashoffset:0;stroke-opacity:1"
       d="m 5612.7857,1776.9995 167.1163,1.8213 0.2824,0.3739 v 0 l -0.5619,-0.7375"
       id="path120" />
    <path
       style="fill:none;stroke:#000000;stroke-width:9;stroke-linecap:butt;stroke-linejoin:round;stroke-miterlimit:4;stroke-dasharray:none;stroke-dashoffset:0;stroke-opacity:1"
       d="m 5613.8558,1835.2904 166.9428,1.2821 v 0 l -0.2362,-0.2582"
       id="path122"
       sodipodi:nodetypes="cccc" />
    <path
       style="fill:#1d1a08;fill-opacity:0.819608;stroke:#000000;stroke-width:9;stroke-linecap:butt;stroke-linejoin:round;stroke-miterlimit:4;stroke-dasharray:none;stroke-dashoffset:0;stroke-opacity:1"
       d="m 5710.7852,1835.5713 0.082,-25.267 69.1223,1.0315"
       id="path124" />
    <path
       style="fill:#040400;fill-opacity:1;stroke:#000000;stroke-width:9;stroke-linecap:butt;stroke-linejoin:round;stroke-miterlimit:4;stroke-dasharray:none;stroke-dashoffset:0;stroke-opacity:1"
       d="m 5730.2956,1835.7614 -0.2947,-18.6146 50.158,1.0122"
       id="path126" />
    <ellipse
       style="fill:#dbccb7;fill-opacity:0.580392;stroke:#000000;stroke-width:9;stroke-linejoin:round;stroke-miterlimit:4;stroke-dasharray:none;stroke-dashoffset:0;stroke-opacity:1"
       id="path128"
       cx="5799.1592"
       cy="1831.0052"
       rx="4.8779416"
       ry="4.7519302" />
    <ellipse
       style="fill:none;stroke:#000000;stroke-width:9;stroke-linejoin:round;stroke-miterlimit:4;stroke-dasharray:none;stroke-dashoffset:0;stroke-opacity:1"
       id="path130"
       ry="4.9004927"
       rx="4.8650303"
       cy="1830.549"
       cx="5798.9082" />
    <path
       style="fill:#34301b;fill-opacity:0.819608;fill-rule:nonzero;stroke:#000000;stroke-width:9;stroke-linecap:butt;stroke-linejoin:round;stroke-miterlimit:4;stroke-dasharray:none;stroke-dashoffset:0;stroke-opacity:1"
       d="m 5732.4316,2215.8148 1.1803,25.021 52.348,-0.705 -0.113,-23.0695 z"
       id="path975" />
    <path
       style="fill:none;stroke:#000000;stroke-width:9;stroke-linecap:butt;stroke-linejoin:round;stroke-miterlimit:4;stroke-dasharray:none;stroke-dashoffset:0;stroke-opacity:1"
       d="m 4739.3953,2149.5806 c 0,0 -27.4644,17.5109 -65.5526,-1.3053"
       id="path979"
       sodipodi:nodetypes="cc" />
    <path
       style="opacity:0.940983;fill:#000000;fill-opacity:1;stroke:#000000;stroke-width:9;stroke-linecap:butt;stroke-linejoin:round;stroke-miterlimit:4;stroke-dasharray:none;stroke-dashoffset:0;stroke-opacity:1"
       d="m 6333.4027,830.71183 c 0,0 -21.9342,-91.44419 70.9739,-98.05874 92.9081,-6.61456 892.4381,-21.56911 979.7331,-1.78231 0,0 51.9273,5.66171 53.1621,51.05379 1.2348,45.39208 10.3311,690.80333 0.3837,714.16503 -9.9475,23.3616 5.4961,27.8548 -49.859,52.8719 0,0 -831.4143,29.5774 -997.8691,0.1753 0,0 -52.0218,-3.9547 -48.5161,-71.3207 0,0 -16.043,-645.15144 -8.0086,-647.10427 z"
       id="path112-3" />
  </g>
</svg>
