<?xml version="1.0" encoding="UTF-8" standalone="no"?>
<svg
   xmlns:dc="http://purl.org/dc/elements/1.1/"
   xmlns:cc="http://creativecommons.org/ns#"
   xmlns:rdf="http://www.w3.org/1999/02/22-rdf-syntax-ns#"
   xmlns:svg="http://www.w3.org/2000/svg"
   xmlns="http://www.w3.org/2000/svg"
   xmlns:sodipodi="http://sodipodi.sourceforge.net/DTD/sodipodi-0.dtd"
   xmlns:inkscape="http://www.inkscape.org/namespaces/inkscape"
   width="9.8247204mm"
   height="16.121555mm"
   viewBox="0 0 9.8247204 16.121555"
   version="1.1"
   id="svg4803"
   inkscape:version="1.0.1 (3bc2e813f5, 2020-09-07)"
   sodipodi:docname="head.svg">
  <defs
     id="defs4797" />
  <sodipodi:namedview
     id="base"
     pagecolor="#ffffff"
     bordercolor="#666666"
     borderopacity="1.0"
     inkscape:pageopacity="0.0"
     inkscape:pageshadow="2"
     inkscape:zoom="0.36914446"
     inkscape:cx="180.17734"
     inkscape:cy="289.77064"
     inkscape:document-units="mm"
     inkscape:current-layer="layer1"
     inkscape:document-rotation="0"
     showgrid="false"
     fit-margin-top="0"
     fit-margin-left="0"
     fit-margin-right="0"
     fit-margin-bottom="0"
     showborder="false"
     inkscape:window-width="1920"
     inkscape:window-height="1007"
     inkscape:window-x="0"
     inkscape:window-y="0"
     inkscape:window-maximized="1" />
  <metadata
     id="metadata4800">
    <rdf:RDF>
      <cc:Work
         rdf:about="">
        <dc:format>image/svg+xml</dc:format>
        <dc:type
           rdf:resource="http://purl.org/dc/dcmitype/StillImage" />
        <dc:title></dc:title>
      </cc:Work>
    </rdf:RDF>
  </metadata>
  <g
     inkscape:label="Layer 1"
     inkscape:groupmode="layer"
     id="layer1"
     transform="translate(-58.161412,-71.498184)">
    <g
       id="g52"
       transform="matrix(0.35277777,0,0,-0.35277777,63.287396,74.061042)">
      <path
         d="m 0,0 c 0,-2.675 -2.168,-4.843 -4.843,-4.843 -2.675,0 -4.844,2.168 -4.844,4.843 0,2.675 2.169,4.843 4.844,4.843 C -2.168,4.843 0,2.675 0,0"
         style="fill:#000000;fill-opacity:1;fill-rule:nonzero;stroke:none"
         id="path54" />
    </g>
    <g
       id="g56"
       transform="matrix(0.35277777,0,0,-0.35277777,63.513906,79.608156)">
      <path
         d="M 0,0 0.826,0.789 H 2.439 L 3.227,0 V -1.613 L 2.439,-2.438 H 0.826 L 0,-1.613 Z m -6.054,0 0.825,0.789 h 1.614 L -2.827,0 v -1.613 l -0.788,-0.825 h -1.614 l -0.825,0.825 z m 9.823,-18.495 1.029,1.078 v 27.4 l -1.029,1.03 H -6.77 l -1.078,-1.03 v -27.4 l 1.078,-1.078 z m -11.617,-3.137 v 2.108 l -1.029,1.029 h -2.108 l -1.078,1.078 v 27.4 l 1.078,1.03 h 2.108 l 1.029,1.078 v 2.108 l 1.078,1.03 H 3.769 l 1.029,-1.03 v -2.108 l 1.079,-1.078 h 2.107 l 1.03,-1.03 v -27.4 l -1.03,-1.078 H 5.877 l -1.079,-1.029 v -2.108 L 3.769,-22.71 H -6.77 Z"
         style="fill:#000000;fill-opacity:1;fill-rule:nonzero;stroke:none"
         id="path58" />
    </g>
    <g
       id="g60"
       transform="matrix(0.35277777,0,0,-0.35277777,64.995996,73.206687)">
      <path
         d="m 0,0 c 0,-2.675 -2.168,-4.844 -4.843,-4.844 -2.675,0 -4.844,2.169 -4.844,4.844 0,2.675 2.169,4.843 4.844,4.843 C -2.168,4.843 0,2.675 0,0"
         style="fill:#000000;fill-opacity:1;fill-rule:nonzero;stroke:none"
         id="path62" />
    </g>
    <g
       id="g64"
       transform="matrix(0.35277777,0,0,-0.35277777,67.558962,74.701829)">
      <path
         d="m 0,0 c 0,-2.675 -2.168,-4.843 -4.843,-4.843 -2.675,0 -4.844,2.168 -4.844,4.843 0,2.675 2.169,4.843 4.844,4.843 C -2.168,4.843 0,2.675 0,0"
         style="fill:#000000;fill-opacity:1;fill-rule:nonzero;stroke:none"
         id="path66" />
    </g>
    <g
       id="g68"
       transform="matrix(0.35277777,0,0,-0.35277777,61.57877,75.769653)">
      <path
         d="m 0,0 c 0,-2.675 -2.168,-4.843 -4.843,-4.843 -2.675,0 -4.844,2.168 -4.844,4.843 0,2.675 2.169,4.843 4.844,4.843 C -2.168,4.843 0,2.675 0,0"
         style="fill:#000000;fill-opacity:1;fill-rule:nonzero;stroke:none"
         id="path70" />
    </g>
    <g
       id="g72"
       transform="matrix(0.35277777,0,0,-0.35277777,64.141789,75.769653)">
      <path
         d="m 0,0 c 0,-2.675 -2.168,-4.843 -4.843,-4.843 -2.676,0 -4.844,2.168 -4.844,4.843 0,2.675 2.168,4.843 4.844,4.843 C -2.168,4.843 0,2.675 0,0"
         style="fill:#000000;fill-opacity:1;fill-rule:nonzero;stroke:none"
         id="path74" />
    </g>
    <g
       id="g76"
       transform="matrix(0.35277777,0,0,-0.35277777,66.277558,76.196831)">
      <path
         d="m 0,0 c 0,-2.675 -2.168,-4.843 -4.844,-4.843 -2.675,0 -4.843,2.168 -4.843,4.843 0,2.675 2.168,4.843 4.843,4.843 C -2.168,4.843 0,2.675 0,0"
         style="fill:#000000;fill-opacity:1;fill-rule:nonzero;stroke:none"
         id="path78" />
    </g>
    <g
       id="g80"
       transform="matrix(0.35277777,0,0,-0.35277777,67.986132,75.769653)">
      <path
         d="m 0,0 c 0,-2.675 -2.168,-4.843 -4.843,-4.843 -2.676,0 -4.844,2.168 -4.844,4.843 0,2.675 2.168,4.843 4.844,4.843 C -2.168,4.843 0,2.675 0,0"
         style="fill:#000000;fill-opacity:1;fill-rule:nonzero;stroke:none"
         id="path82" />
    </g>
  </g>
</svg>
